<svg width="100%" height="100%" viewBox="0 0 150 50" preserveAspectRatio="none" fill="none" xmlns="http://www.w3.org/2000/svg">
<path d="M32.5535 31.5677V33.2317H35.2611V34.6835H32.5535V36.448H35.6035V37.9885H30.6162V30.0387H35.6035V31.5677H32.5535Z" fill="#FC8403"/>
<path d="M41.5632 37.9885L39.8749 35.5136L38.4238 37.9885H36.2025L38.7623 33.8958L36.1208 30.0387H38.4199L40.0616 32.4325L41.4776 30.0387H43.6873L41.1586 34.0426L43.8624 37.9885H41.5632Z" fill="#FC8403"/>
<path fill-rule="evenodd" clip-rule="evenodd" d="M46.5738 36.5367H49.5771L50.0828 37.9884H52.1446L49.2075 30.0927H46.9745L44.0374 37.9884H46.0759L46.5738 36.5367ZM48.0835 32.1506L49.0794 35.0734H47.0759L48.0835 32.1506Z" fill="#FC8403"/>
<path d="M61.8974 30.0927V37.9884H59.96V33.0502L58.2367 37.9884H56.56L54.8249 33.0425V37.9884H52.8876V30.0927H55.2567L57.4197 35.5907L59.5399 30.0927H61.8974Z" fill="#FC8403"/>
<path fill-rule="evenodd" clip-rule="evenodd" d="M67.4373 37.9885V35.2009H68.6355C69.2618 35.2009 69.7948 35.0889 70.2344 34.8688C70.674 34.6487 71.0046 34.3437 71.2264 33.9576C71.4481 33.5715 71.5609 33.1314 71.5609 32.6372C71.5609 31.8418 71.312 31.2086 70.814 30.7414C70.3161 30.2742 69.5925 30.0387 68.6394 30.0387H65.4999V37.9885H67.4373ZM68.4255 31.5868C69.2035 31.5868 69.5925 31.9343 69.5925 32.6332C69.5925 33.3166 69.2035 33.6563 68.4255 33.6563H67.4412V31.5868H68.4255Z" fill="#FC8403"/>
<path fill-rule="evenodd" clip-rule="evenodd" d="M74.8949 34.9846L76.6299 37.9885V37.9924H78.7696L76.8672 34.865C77.4819 34.7144 77.9448 34.4364 78.2677 34.031C78.5906 33.6256 78.7501 33.1352 78.7501 32.5561C78.7501 32.0696 78.6373 31.6372 78.4195 31.2588C78.2016 30.8804 77.8748 30.5792 77.4352 30.363C76.9956 30.1468 76.4588 30.0387 75.8247 30.0387H72.5141V37.9885H74.4514V34.9846H74.8949ZM75.6574 33.668H74.4592V31.6525H75.6613C76.0387 31.6525 76.3188 31.7413 76.5055 31.9228C76.6883 32.1004 76.7817 32.3475 76.7817 32.6641C76.7817 32.9962 76.6922 33.2433 76.5094 33.4132C76.3266 33.583 76.0426 33.668 75.6574 33.668Z" fill="#FC8403"/>
<path d="M81.66 31.5677V33.2317H84.3676V34.6835H81.66V36.448H84.7099V37.9885H79.7226V30.0387H84.7099V31.5677H81.66Z" fill="#FC8403"/>
<path fill-rule="evenodd" clip-rule="evenodd" d="M87.7482 37.9885V35.2009H88.9464C89.5727 35.2009 90.1056 35.0889 90.5452 34.8688C90.9848 34.6487 91.3155 34.3437 91.5373 33.9576C91.759 33.5715 91.8718 33.1314 91.8718 32.6372C91.8718 31.8418 91.6228 31.2086 91.1249 30.7414C90.6269 30.2742 89.9034 30.0387 88.9502 30.0387H85.8108V37.9885H87.7482ZM88.7363 31.5868C89.5143 31.5868 89.9033 31.9343 89.9033 32.6332C89.9033 33.3166 89.5104 33.6563 88.7363 33.6563H87.752V31.5868H88.7363Z" fill="#FC8403"/>
<path fill-rule="evenodd" clip-rule="evenodd" d="M39.2602 19.2084C40.4272 18.4555 41.0302 17.413 41.0302 16.1968C41.0302 13.803 39.338 12.1041 35.9146 12.1041H32.0243C31.1879 12.1041 30.6238 12.6447 30.6238 13.4748V25.6369C30.6238 26.4478 31.1879 27.0076 32.0243 27.0076L35.8951 27.0462C40.33 27.0848 41.7888 25.1929 41.7888 22.8763C41.7888 21.2161 40.8357 19.9034 39.2602 19.2663C39.2602 19.2663 39.2407 19.2586 39.2407 19.2393C39.2407 19.22 39.2602 19.2084 39.2602 19.2084ZM70.6973 26.9305C67.2738 26.9305 65.2898 24.8841 65.2898 20.8108V13.9189C65.2898 12.915 65.8539 12.3166 66.6903 12.3166C67.5073 12.3166 68.0908 12.915 68.0908 13.9189V20.5984C68.0908 23.3397 68.9855 24.2085 70.6973 24.2085C72.409 24.2085 73.3037 23.3397 73.3037 20.5984V13.9189C73.3037 12.915 73.8873 12.3166 74.7042 12.3166C75.5406 12.3166 76.1047 12.915 76.1047 13.9189V20.8108C76.1047 24.8841 74.1207 26.9305 70.6973 26.9305ZM45.4496 13.1467L48.5812 18.3204L51.7129 13.1467C52.0241 12.6448 52.3547 12.3166 52.9577 12.3166C53.7552 12.3166 54.3777 12.8571 54.3777 13.5714C54.3777 14.0154 54.2415 14.3436 54.0081 14.7104L49.9817 21.1197V25.4054C49.9817 26.4092 49.3982 27.0077 48.5618 27.0077C47.8226 27.0077 47.1807 26.4092 47.1807 25.4054V21.1197L43.1543 14.7104C42.9209 14.3436 42.7848 14.0154 42.7848 13.5714C42.7848 12.8571 43.4072 12.3166 44.2047 12.3166C44.8077 12.3166 45.1384 12.6448 45.4496 13.1467ZM79.1392 17.4324C79.4698 17.4324 79.8783 17.2587 80.1117 16.7568C80.4813 15.9653 80.8509 14.4595 80.8509 13.7838C80.8509 12.8572 80.4229 12.278 79.4115 12.278C78.3806 12.3166 77.9526 12.973 77.9526 14.1892V15.2896C77.9526 16.6602 78.3417 17.4324 79.1392 17.4324ZM57.5871 26.9498C54.3193 26.9498 53.1328 24.4401 53.1328 23.1081C53.1328 22.1235 53.9108 21.6409 54.6499 21.6988C55.4073 21.76 55.6144 22.3 55.8327 22.8691C56.0966 23.557 56.3769 24.2875 57.6649 24.2664C59.0459 24.2471 59.6489 23.417 59.6489 21.6602V13.9189C59.6489 12.915 60.1741 12.3166 61.0494 12.3166C61.8663 12.3166 62.4499 12.915 62.4499 13.9189V21.6023C62.4499 25.0386 60.816 26.9498 57.5871 26.9498ZM36.8288 17.9151C35.9146 18.0888 35.3311 18.4556 35.3311 19.3243C35.3311 20.2124 35.8952 20.695 36.8094 20.8108C38.3849 20.9846 38.9296 21.5251 38.9296 22.722C38.9296 23.8224 38.0154 24.4208 36.2648 24.4208H33.4054V14.6525H36.4982C37.6652 14.6525 38.2488 15.3475 38.2488 16.39C38.2488 17.2973 37.7041 17.7606 36.8288 17.9151ZM83.0527 22.4323C83.5584 22.4323 84.0058 22.8377 84.3559 23.2431C85.1145 23.9767 85.8926 24.4593 86.9818 24.4593C88.2072 24.4593 89.0242 23.9381 89.0242 22.8956C89.0242 21.6156 87.6864 21.0598 86.1934 20.4396C84.309 19.6567 82.1774 18.7712 82.1774 16.1968C82.1774 13.3397 84.3559 12.1427 86.5733 12.1041C87.896 12.1041 88.8686 12.4323 89.6077 12.857C90.483 13.359 91.4945 14.3049 91.4945 15.3088C91.4945 16.0037 90.8721 16.4671 90.1718 16.4671C89.5747 16.4671 89.2056 16.0834 88.8593 15.7233C88.7205 15.579 88.5853 15.4385 88.4407 15.3281C87.9933 14.9613 87.3708 14.7682 86.5928 14.7682C85.5813 14.7682 84.9783 15.2702 84.9783 16.1582C84.9783 17.0699 86.0751 17.5363 87.3907 18.0958C89.3622 18.9343 91.8252 19.9817 91.8252 23.0501C91.8252 25.6756 89.6272 27.1427 87.0013 27.1427C84.7838 27.1427 83.2083 26.1968 82.2552 25.0385C81.9051 24.6331 81.73 24.1698 81.73 23.803C81.73 22.8184 82.4302 22.4323 83.0527 22.4323Z" fill="white"/>
<path d="M66.6903 12.5752C67.5073 12.5752 68.0908 13.1737 68.0908 14.1775V13.9188C68.0908 12.915 67.5073 12.3165 66.6903 12.3165C65.8539 12.3165 65.2898 12.915 65.2898 13.9188V14.1775C65.2898 13.1737 65.8539 12.5752 66.6903 12.5752" fill="white"/>
<path d="M68.0907 20.8571C68.0907 23.5984 68.9855 24.4671 70.6972 24.4671C72.4089 24.4671 73.3036 23.5984 73.3036 20.8571V20.5984C73.3036 23.3397 72.4089 24.2084 70.6972 24.2084C68.9855 24.2084 68.0907 23.3397 68.0907 20.5984V20.8571Z" fill="white"/>
<path d="M84.986 16.274C84.9821 16.3204 84.9782 16.3706 84.9782 16.4208C84.9782 18.6756 91.6928 18.2084 91.8212 23.1698C91.8212 23.1312 91.8251 23.0926 91.8251 23.054C91.8251 18.0231 85.2117 18.4208 84.986 16.274" fill="white"/>
<path d="M44.2047 12.5752C44.8077 12.5752 45.1384 12.9034 45.4496 13.4053L48.5812 18.5791L51.7129 13.4053C52.0241 12.9034 52.3547 12.5752 52.9577 12.5752C53.7124 12.5752 54.3115 13.0617 54.3699 13.7219C54.3738 13.6717 54.3777 13.6215 54.3777 13.5714C54.3777 12.8571 53.7552 12.3165 52.9577 12.3165C52.3547 12.3165 52.0241 12.6447 51.7129 13.1466L48.5812 18.3204L45.4496 13.1466C45.1384 12.6447 44.8077 12.3165 44.2047 12.3165C43.4072 12.3165 42.7848 12.8571 42.7848 13.5714C42.7848 13.6215 42.7886 13.6717 42.7925 13.7219C42.8509 13.0656 43.4461 12.5752 44.2047 12.5752" fill="white"/>
<path d="M83.0527 22.6913C83.5584 22.6913 84.0058 23.0967 84.3559 23.5021C85.1145 24.2357 85.8925 24.7183 86.9818 24.7183C88.2072 24.7183 89.0242 24.1971 89.0242 23.1546C89.0242 23.1082 89.0203 23.0581 89.0164 23.0117C88.9542 23.9731 88.1567 24.4557 86.9818 24.4557C85.8925 24.4557 85.1145 23.9731 84.3559 23.2395C84.0058 22.8341 83.5584 22.4287 83.0527 22.4287C82.4302 22.4287 81.73 22.8148 81.73 23.7994C81.73 23.838 81.7339 23.8727 81.7378 23.9113C81.8039 23.0426 82.4613 22.6913 83.0527 22.6913" fill="white"/>
<path d="M86.5732 12.3628C87.8959 12.3628 88.8685 12.691 89.6076 13.1157C90.444 13.5945 91.4049 14.4825 91.4866 15.44C91.4905 15.3976 91.4944 15.3551 91.4944 15.3088C91.4944 14.3049 90.4829 13.359 89.6076 12.857C88.8685 12.4323 87.8959 12.1041 86.5732 12.1041C84.3558 12.1427 82.1772 13.3396 82.1772 16.1968C82.1772 16.2431 82.1772 16.2856 82.1811 16.3281C82.2434 13.5636 84.3908 12.4014 86.5732 12.3628" fill="white"/>
<path d="M53.1328 23.1082C53.1328 23.1583 53.1366 23.2085 53.1366 23.2587C53.1911 22.3475 53.938 21.8997 54.6499 21.9576C56.3227 22.0927 55.3113 24.5638 57.6649 24.5251C59.0459 24.5058 59.6489 23.6757 59.6489 21.919V21.6603C59.6489 23.417 59.0459 24.2472 57.6649 24.2665C55.3113 24.3051 56.3227 21.834 54.6499 21.6989C53.9108 21.641 53.1328 22.1236 53.1328 23.1082" fill="white"/>
<path d="M74.7042 12.3165C73.8872 12.3165 73.3037 12.915 73.3037 13.9188V14.1775C73.3037 13.1737 73.8872 12.5752 74.7042 12.5752C75.5406 12.5752 76.1047 13.1737 76.1047 14.1775V13.9188C76.1047 12.915 75.5406 12.3165 74.7042 12.3165" fill="white"/>
<path d="M79.4115 12.278C78.3806 12.3166 77.9526 12.9729 77.9526 14.1892V14.4478C77.9526 13.2316 78.3806 12.5753 79.4115 12.5366C80.3724 12.5366 80.8081 13.0617 80.847 13.9112C80.8509 13.8648 80.8509 13.8224 80.8509 13.7837C80.8509 12.8571 80.4229 12.278 79.4115 12.278" fill="white"/>
<path d="M61.0495 12.3165C60.1742 12.3165 59.649 12.915 59.649 13.9188V14.1775C59.649 13.1737 60.1742 12.5752 61.0495 12.5752C61.8665 12.5752 62.45 13.1737 62.45 14.1775V13.9188C62.45 12.915 61.8665 12.3165 61.0495 12.3165" fill="white"/>
<path d="M32.0243 12.3628H35.9146C39.2641 12.3628 40.9563 13.9922 41.0263 16.3049C41.0263 16.2701 41.0302 16.2315 41.0302 16.1968C41.0302 13.803 39.338 12.1041 35.9146 12.1041H32.0243C31.1879 12.1041 30.6238 12.6447 30.6238 13.4748V13.7335C30.6238 12.9034 31.1879 12.3628 32.0243 12.3628" fill="white"/>
<path d="M36.8289 17.915C35.9147 18.0888 35.3311 18.4556 35.3311 19.3243C35.3311 19.3706 35.335 19.4131 35.335 19.4594C35.3895 18.6795 35.9574 18.3397 36.8289 18.1776C37.7042 18.0231 38.2488 17.5598 38.2488 16.6525C38.2488 16.6061 38.2449 16.5637 38.2449 16.5173C38.1943 17.3397 37.6614 17.7683 36.8289 17.915" fill="white"/>
<path d="M36.2648 24.6796C38.0154 24.6796 38.9296 24.0811 38.9296 22.9807C38.9296 22.9228 38.9257 22.8688 38.9257 22.8147C38.8751 23.8533 37.9648 24.4209 36.2648 24.4209H33.4054V24.6796H36.2648V24.6796Z" fill="white"/>
<path d="M39.2602 19.2664C39.2602 19.2664 39.2407 19.2586 39.2407 19.2393C39.2407 19.2162 39.2602 19.2085 39.2602 19.2085C39.2602 19.2085 39.2641 19.2085 39.2641 19.2046C39.2291 19.2316 39.1629 19.2818 39.1085 19.3243C39.0579 19.3629 39.0696 19.4401 39.124 19.4633L39.2602 19.5212C40.8046 20.1467 41.7499 21.4208 41.785 23.0386C41.785 22.9845 41.7888 22.9266 41.7888 22.8725C41.7888 22.4478 41.7188 22.0308 41.5943 21.6332C41.2364 20.5714 40.4156 19.7374 39.2602 19.2664" fill="white"/>
<path d="M23.6293 12C25.0298 12 26.1657 13.1274 26.1657 14.5212V35.4788C26.1657 36.8726 25.0298 38 23.6293 38H2.53644C1.13595 38 0 36.8726 0 35.4788V14.5212C0 13.1274 1.13595 12 2.53644 12H23.6293V12Z" fill="white"/>
<path d="M23.6298 12C25.0303 12 26.1662 13.1274 26.1662 14.5212V23.0463C26.1662 23.8764 25.4893 24.5521 24.6529 24.5521H1.51767C0.681265 24.5521 0.00436401 23.8764 0.00436401 23.0463V14.5212C0.00436401 13.1274 1.14031 12 2.5408 12H23.6298V12Z" fill="white"/>
<path d="M2.54028 37.9962C1.13979 37.9962 0.00384521 36.8688 0.00384521 35.475V26.9499C0.00384521 26.1198 0.680747 25.4441 1.51715 25.4441H24.6524C25.4888 25.4441 26.1657 26.1198 26.1657 26.9499V35.475C26.1657 36.8688 25.0297 37.9962 23.6293 37.9962H2.54028Z" fill="white"/>
<path d="M23.68 12.8302C24.5903 12.8302 25.3294 13.5638 25.3294 14.4711V35.5252C25.3294 36.4287 24.5903 37.1661 23.68 37.1661H2.48985C1.57954 37.1661 0.840393 36.4325 0.840393 35.5252V14.4711C0.840393 13.5677 1.57954 12.8302 2.48985 12.8302H23.68V12.8302Z" fill="white"/>
<path d="M16.9497 31.6989V31.6989L11.8652 33.1584C11.4334 33.2819 10.9821 33.0348 10.8576 32.6062L7.01015 19.3669C6.88567 18.9383 7.13464 18.4904 7.56646 18.3669L12.8261 16.8572C14.0398 16.5097 15.3625 16.8572 16.2028 17.7954C17.7628 19.5367 17.3932 21.7993 15.9694 23.0194C17.8056 23.1275 19.455 24.3591 19.9958 26.2124C20.6804 28.5638 19.315 31.0232 16.9497 31.6989Z" fill="#4C205B"/>
<path fill-rule="evenodd" clip-rule="evenodd" d="M17.1403 17.3744C18.4202 18.996 18.4669 20.915 17.6888 22.4053C19.844 23.2432 21.4351 25.4323 21.1278 28.2432C20.9216 30.1119 19.2255 32.0617 17.4087 32.5829L11.9818 34.1389C11.1182 34.386 10.2196 33.8918 9.97059 33.0347L6.02978 19.4709C5.7808 18.6177 6.27486 17.7219 7.1385 17.4748L12.542 15.9265C14.0709 15.4864 16.1561 16.1273 17.1403 17.3744ZM11.8651 33.1584L16.9496 31.699C19.3149 31.0233 20.6804 28.5638 19.9996 26.2125C19.4588 24.3592 17.8094 23.1275 15.9732 23.0194C17.4009 21.8032 17.7705 19.5368 16.2027 17.7916C15.3663 16.8611 14.0514 16.5098 12.8415 16.8573L7.57027 18.3669C7.13846 18.4905 6.88948 18.9383 7.01397 19.3669L10.8614 32.6063C10.9859 33.0349 11.4333 33.282 11.8651 33.1584Z" fill="white"/>
<path d="M18.5332 28.1698C18.5332 25.9266 16.7164 24.1081 14.464 24.0849C15.8295 22.9189 16.1913 20.7606 14.7285 19.081C13.9116 18.1428 12.6122 17.7799 11.414 18.1235L7.01419 19.3861L10.8539 32.6061C10.9783 33.0347 11.4296 33.2818 11.8575 33.1583L15.4677 32.1235C15.4832 32.1197 15.5027 32.1119 15.5183 32.1081C17.2611 31.6254 18.5332 30.0463 18.5332 28.1698Z" fill="#813488"/>
<path d="M98.0597 37.8168V37.8168C97.9583 37.8168 97.8752 37.7193 97.8752 37.6001V12.3997C97.8752 12.2805 97.9583 12.183 98.0597 12.183V12.183C98.1612 12.183 98.2442 12.2805 98.2442 12.3997V37.6001C98.2442 37.7193 98.1612 37.8168 98.0597 37.8168Z" fill="#808080"/>
<path fill-rule="evenodd" clip-rule="evenodd" d="M105.829 21.2119V17.4393H109.976V16.4509H105.829V13.9321H110.546V12.9155H104.685V21.2119H105.829ZM113.979 21.432C114.995 21.432 115.745 21.1139 116.228 20.4776C116.711 19.8413 116.953 19.0356 116.953 18.0604C116.953 17.0514 116.678 16.287 116.13 15.7675C115.582 15.2479 114.911 14.9881 114.117 14.9881C113.231 14.9881 112.526 15.2893 112.001 15.8917C111.475 16.4941 111.213 17.3036 111.213 18.3202C111.213 19.269 111.462 20.0248 111.96 20.5877C112.459 21.1506 113.132 21.432 113.979 21.432ZM112.708 19.9127C112.996 20.3419 113.452 20.5565 114.077 20.5565C114.763 20.5565 115.234 20.3014 115.489 19.7913C115.744 19.2811 115.871 18.7135 115.871 18.0885C115.871 17.5238 115.779 17.0644 115.595 16.7105C115.304 16.1533 114.802 15.8747 114.088 15.8747C113.456 15.8747 112.996 16.1119 112.708 16.5863C112.42 17.0607 112.277 17.633 112.277 18.3031C112.277 18.947 112.42 19.4835 112.708 19.9127ZM119.247 21.2119V17.733C119.247 17.3037 119.387 16.9244 119.667 16.595C119.947 16.2655 120.348 16.1008 120.869 16.1008C120.931 16.1008 120.987 16.1027 121.039 16.1065C121.091 16.1102 121.147 16.1177 121.209 16.129V15.056C121.097 15.0447 121.019 15.0372 120.973 15.0334C120.927 15.0296 120.894 15.0278 120.875 15.0278C120.465 15.0278 120.102 15.1737 119.788 15.4655C119.474 15.7572 119.276 16.0048 119.196 16.2081V15.1633H118.212V21.2119H119.247ZM123.141 18.0041V21.2119H122.106V15.1633H123.129V16.0217C123.375 15.7243 123.597 15.5078 123.797 15.3723C124.138 15.1426 124.525 15.0278 124.958 15.0278C125.449 15.0278 125.844 15.1464 126.143 15.3836C126.312 15.5191 126.465 15.7187 126.603 15.9822C126.833 15.6584 127.104 15.4184 127.414 15.2621C127.725 15.1059 128.074 15.0278 128.461 15.0278C129.289 15.0278 129.853 15.3214 130.152 15.9088C130.313 16.2251 130.393 16.6505 130.393 17.1851V21.2119H129.318V17.0101C129.318 16.6072 129.215 16.3305 129.01 16.1799C128.805 16.0293 128.555 15.954 128.26 15.954C127.853 15.954 127.503 16.0876 127.21 16.3549C126.917 16.6223 126.77 17.0684 126.77 17.6934V21.2119H125.718V17.2642C125.718 16.8538 125.668 16.5545 125.568 16.3662C125.411 16.0839 125.117 15.9427 124.688 15.9427C124.297 15.9427 123.941 16.0914 123.621 16.3888C123.301 16.6863 123.141 17.2247 123.141 18.0041ZM134.322 21.4265C134.636 21.4265 134.918 21.3964 135.167 21.3361C135.631 21.2307 136.02 21.0274 136.335 20.7262C136.523 20.553 136.692 20.3299 136.844 20.057C136.995 19.784 137.084 19.5364 137.111 19.3143H136.093C136.016 19.5816 135.886 19.8169 135.702 20.0203C135.38 20.3704 134.949 20.5455 134.408 20.5455C133.829 20.5455 133.401 20.3601 133.125 19.9892C132.849 19.6183 132.702 19.126 132.683 18.5123H137.197C137.197 17.9024 137.167 17.4581 137.105 17.1795C137.036 16.7729 136.898 16.4171 136.691 16.1121C136.477 15.7921 136.164 15.5313 135.754 15.3299C135.344 15.1285 134.92 15.0278 134.483 15.0278C133.616 15.0278 132.914 15.3308 132.378 15.937C131.841 16.5432 131.573 17.332 131.573 18.3034C131.573 19.2898 131.839 20.057 132.372 20.6048C132.905 21.1526 133.555 21.4265 134.322 21.4265ZM132.711 17.7047H136.133C136.091 17.2642 135.993 16.9122 135.84 16.6486C135.556 16.1592 135.083 15.9144 134.419 15.9144C133.944 15.9144 133.545 16.0829 133.223 16.4199C132.901 16.7569 132.731 17.1852 132.711 17.7047ZM139.532 21.2119V17.733C139.532 17.3037 139.672 16.9244 139.952 16.595C140.232 16.2655 140.633 16.1008 141.154 16.1008C141.216 16.1008 141.272 16.1027 141.324 16.1065C141.376 16.1102 141.432 16.1177 141.494 16.129V15.056C141.382 15.0447 141.304 15.0372 141.258 15.0334C141.212 15.0296 141.179 15.0278 141.16 15.0278C140.75 15.0278 140.387 15.1737 140.073 15.4655C139.759 15.7572 139.561 16.0048 139.481 16.2081V15.1633H138.497V21.2119H139.532ZM143.455 12.9155V21.2119H142.42V12.9155H143.455ZM145.554 23.6912C146.152 23.6912 146.574 23.5218 146.819 23.1829C147.065 22.844 147.487 21.9028 148.085 20.3591C148.338 19.704 148.652 18.8568 149.028 17.8177C149.53 16.4359 149.854 15.5511 150 15.1633H148.855L147.193 20.088L145.543 15.1633H144.369L146.647 21.387C146.593 21.5225 146.507 21.7296 146.388 22.0082C146.269 22.2868 146.2 22.4412 146.181 22.4713C146.12 22.5617 146.044 22.6379 145.954 22.7C145.864 22.7622 145.723 22.7932 145.531 22.7932C145.47 22.7932 145.399 22.7876 145.318 22.7763C145.238 22.765 145.107 22.7349 144.927 22.6859V23.6121C145.042 23.6422 145.139 23.663 145.218 23.6742C145.296 23.6855 145.408 23.6912 145.554 23.6912ZM109.924 34.4753C109.422 34.7539 108.784 34.8932 108.009 34.8932C107.008 34.8932 106.148 34.5751 105.427 33.9388C104.641 33.1406 104.248 32.045 104.248 30.6519C104.248 29.2626 104.631 28.1575 105.398 27.3367C106.127 26.5536 107.07 26.162 108.228 26.162C109.021 26.162 109.708 26.3126 110.287 26.6138C111.126 27.0468 111.64 27.8055 111.828 28.8898H110.695C110.557 28.2837 110.271 27.8422 109.838 27.5655C109.405 27.2887 108.858 27.1504 108.199 27.1504C107.417 27.1504 106.758 27.4384 106.223 28.0144C105.688 28.5905 105.421 29.4489 105.421 30.5898C105.421 31.5762 105.642 32.3791 106.082 32.9985C106.523 33.6178 107.242 33.9275 108.239 33.9275C109.002 33.9275 109.634 33.7101 110.134 33.2752C110.635 32.8403 110.891 32.1372 110.902 31.1658H108.256V30.234H111.966V34.673H111.23L110.954 33.6056C110.567 34.0235 110.223 34.3134 109.924 34.4753ZM114.663 34.673V31.1941C114.663 30.7648 114.803 30.3855 115.083 30.0561C115.363 29.7266 115.764 29.5619 116.285 29.5619C116.347 29.5619 116.403 29.5638 116.455 29.5675C116.507 29.5713 116.563 29.5788 116.625 29.5901V28.5171C116.513 28.5058 116.435 28.4983 116.389 28.4945C116.343 28.4907 116.31 28.4888 116.291 28.4888C115.881 28.4888 115.518 28.6347 115.204 28.9265C114.89 29.2183 114.692 29.4659 114.612 29.6692V28.6244H113.628V34.673H114.663ZM120.484 34.5771C120.089 34.7766 119.654 34.8764 119.178 34.8764C118.607 34.8764 118.14 34.706 117.778 34.3653C117.415 34.0245 117.234 33.5982 117.234 33.0861C117.234 32.5251 117.413 32.0902 117.769 31.7815C118.126 31.4728 118.594 31.2826 119.173 31.2111L120.823 31.0078C121.061 30.9777 121.22 30.8798 121.301 30.7141C121.347 30.6237 121.37 30.4938 121.37 30.3244C121.37 29.978 121.244 29.7267 120.993 29.5705C120.742 29.4142 120.382 29.3361 119.914 29.3361C119.374 29.3361 118.99 29.4792 118.764 29.7653C118.638 29.9234 118.555 30.1588 118.517 30.4713H117.551C117.57 29.7258 117.816 29.2071 118.29 28.9153C118.763 28.6235 119.312 28.4777 119.937 28.4777C120.662 28.4777 121.251 28.6132 121.703 28.8843C122.152 29.1554 122.376 29.5771 122.376 30.1493V33.6339C122.376 33.7393 122.398 33.8241 122.442 33.8881C122.486 33.9521 122.579 33.9841 122.721 33.9841C122.767 33.9841 122.819 33.9813 122.876 33.9756C122.934 33.97 122.995 33.9615 123.06 33.9502V34.7013C122.899 34.7465 122.777 34.7747 122.692 34.786C122.608 34.7973 122.493 34.803 122.347 34.803C121.991 34.803 121.732 34.6787 121.571 34.4302C121.487 34.2985 121.427 34.1121 121.393 33.8711C121.182 34.1422 120.879 34.3775 120.484 34.5771ZM119.42 34.0123C119.121 34.0123 118.862 33.9276 118.643 33.7582C118.425 33.5888 118.316 33.3572 118.316 33.0635C118.316 32.6757 118.475 32.3934 118.793 32.2164C118.981 32.111 119.263 32.0338 119.638 31.9848L120.265 31.9058C120.457 31.8832 120.653 31.8455 120.852 31.7928C121.051 31.7401 121.214 31.6742 121.341 31.5952V32.4141C121.341 33.0391 121.053 33.489 120.478 33.7638C120.137 33.9295 119.784 34.0123 119.42 34.0123ZM127.305 34.639C126.975 34.8047 126.598 34.8875 126.172 34.8875C125.486 34.8875 124.891 34.6042 124.389 34.0375C123.887 33.4709 123.636 32.7169 123.636 31.7757C123.636 30.8946 123.865 30.1313 124.323 29.4855C124.781 28.8398 125.436 28.517 126.287 28.517C126.759 28.517 127.154 28.6149 127.472 28.8107C127.656 28.9236 127.865 29.1213 128.099 29.4037V26.3483H129.094V34.6729H128.162V33.8314C127.92 34.2041 127.635 34.4733 127.305 34.639ZM126.494 34.0008C125.877 34.0008 125.428 33.7824 125.148 33.3457C124.868 32.9089 124.728 32.3667 124.728 31.7192C124.728 30.9586 124.89 30.3825 125.214 29.991C125.538 29.5994 125.961 29.4036 126.483 29.4036C126.95 29.4036 127.343 29.5872 127.662 29.9543C127.98 30.3214 128.139 30.8871 128.139 31.6514C128.139 32.4082 127.985 32.9889 127.676 33.3937C127.367 33.7984 126.973 34.0008 126.494 34.0008ZM133.873 34.7972C133.624 34.8575 133.342 34.8876 133.028 34.8876C132.261 34.8876 131.611 34.6137 131.078 34.0659C130.545 33.518 130.278 32.7509 130.278 31.7645C130.278 30.7931 130.547 30.0043 131.084 29.3981C131.62 28.7919 132.322 28.4888 133.189 28.4888C133.626 28.4888 134.049 28.5896 134.46 28.791C134.87 28.9924 135.182 29.2532 135.397 29.5732C135.604 29.8782 135.742 30.234 135.811 30.6406C135.873 30.9192 135.903 31.3635 135.903 31.9734H131.388C131.408 32.5871 131.555 33.0794 131.831 33.4503C132.107 33.8211 132.535 34.0066 133.114 34.0066C133.655 34.0066 134.086 33.8315 134.408 33.4813C134.592 33.278 134.722 33.0427 134.799 32.7754H135.817C135.79 32.9975 135.701 33.2451 135.55 33.518C135.398 33.791 135.228 34.0141 135.041 34.1873C134.726 34.4885 134.337 34.6918 133.873 34.7972ZM134.839 31.1658H131.417C131.436 30.6462 131.607 30.218 131.929 29.881C132.251 29.544 132.65 29.3755 133.125 29.3755C133.789 29.3755 134.262 29.6203 134.546 30.1097C134.699 30.3733 134.797 30.7253 134.839 31.1658ZM140.642 34.3625C140.248 34.6787 139.768 34.8369 139.205 34.8369C138.327 34.8369 137.728 34.5488 137.41 33.9728C137.238 33.6641 137.151 33.2518 137.151 32.736V28.6245H138.21V32.64C138.21 32.9487 138.259 33.2009 138.359 33.3967C138.543 33.7582 138.886 33.9389 139.389 33.9389C140.109 33.9389 140.6 33.6226 140.861 32.9901C141.003 32.6512 141.074 32.1863 141.074 31.5951V28.6245H142.109V34.6731H141.131L141.143 33.7808C141.009 34.0104 140.842 34.2043 140.642 34.3625ZM144.68 37.0846V33.9954C144.906 34.2702 145.111 34.4641 145.295 34.5771C145.61 34.7766 145.999 34.8764 146.463 34.8764C147.053 34.8764 147.571 34.6976 148.016 34.3399C148.717 33.7751 149.068 32.8338 149.068 31.5161C149.068 30.5409 148.825 29.7907 148.338 29.2655C147.851 28.7403 147.258 28.4777 146.561 28.4777C146.089 28.4777 145.679 28.5906 145.33 28.8165C145.084 28.9671 144.858 29.1798 144.651 29.4547V28.6527H143.645V37.0846H144.68ZM144.853 33.0521C145.121 33.6771 145.612 33.9896 146.325 33.9896C146.808 33.9896 147.21 33.791 147.53 33.3937C147.85 32.9965 148.01 32.4026 148.01 31.6119C148.01 31.13 147.939 30.7158 147.797 30.3694C147.529 29.703 147.038 29.3698 146.325 29.3698C145.608 29.3698 145.117 29.7218 144.853 30.4259C144.711 30.8024 144.64 31.2806 144.64 31.8604C144.64 32.3273 144.711 32.7245 144.853 33.0521Z" fill="white"/>
</svg>
